# xmcd CD database file
#
# Track frame offsets:
#	150
#	28095
#	48510
#	78670
#	101680
#	128415
#	154592
#	167449
#	181911
#	193568
#	208135
#
# Disc length: 3039 seconds
#
# Revision: 0
# Processed by: cddbd v1.5.2PL0 Copyright (c) Steve Scherf et al.
# Submitted via: CDex 1.70beta2
#
DISCID=890bdd0b
DTITLE=Illinois Jacquet - Swing's The Thing
DYEAR=1956
DGENRE=Jazz
TTITLE0=Las Vegas Blues
TTITLE1=Harlem Nocturne
TTITLE2=Can't We Be Friends
TTITLE3=Achtung
TTITLE4=Have You Met Miss Jones?
TTITLE5=Lullaby Of The Leaves
TTITLE6=No Sweat
TTITLE7=Flying Home
TTITLE8=The Fluke
TTITLE9=Nite Out
TTITLE10=Robbin's Nest
EXTD=YEAR: 1956
EXTT0=
EXTT1=
EXTT2=
EXTT3=
EXTT4=
EXTT5=
EXTT6=
EXTT7=
EXTT8=
EXTT9=
EXTT10=
PLAYORDER=
